<svg width="26" height="26" viewBox="0 0 26 26" fill="none" xmlns="http://www.w3.org/2000/svg">
<g clip-path="url(#clip0_607_2689)">
<path d="M12.5001 0.686279C5.59655 0.686279 0 6.28282 0 13.1864C0 19.378 4.50652 24.5057 10.4153 25.4987V15.7942H7.39993V12.302H10.4153V9.72691C10.4153 6.73911 12.2402 5.11094 14.9059 5.11094C16.1826 5.11094 17.2798 5.20607 17.5983 5.24797V8.37102L15.7494 8.37191C14.3 8.37191 14.0206 9.06052 14.0206 10.0714V12.3002H17.479L17.0279 15.7924H14.0206V25.5822C20.2052 24.8295 25 19.5711 25 13.1828C25 6.28282 19.4035 0.686279 12.5001 0.686279Z" fill="black"/>
</g>
<defs>
<clipPath id="clip0_607_2689">
<rect width="26" height="25" fill="white" transform="translate(0 0.634521)"/>
</clipPath>
</defs>
</svg>
