<svg width="25" height="26" viewBox="0 0 25 26" fill="none" xmlns="http://www.w3.org/2000/svg">
<g clip-path="url(#clip0_607_2698)">
<path d="M24.9756 7.98459C24.917 6.65624 24.7022 5.74302 24.3945 4.95169C24.0771 4.11173 23.5887 3.3597 22.9488 2.73454C22.3237 2.09965 21.5667 1.60631 20.7365 1.29383C19.9405 0.986115 19.0321 0.771305 17.7037 0.712738C16.3655 0.649211 15.9406 0.634521 12.5464 0.634521C9.15218 0.634521 8.72733 0.649211 7.39402 0.707778C6.06567 0.766345 5.15245 0.981345 4.36131 1.28887C3.52115 1.60631 2.76913 2.09469 2.14397 2.73454C1.50908 3.3597 1.01593 4.11669 0.703255 4.94693C0.395539 5.74302 0.180729 6.65128 0.122162 7.97963C0.0586348 9.3179 0.0439453 9.74275 0.0439453 13.137C0.0439453 16.5312 0.0586348 16.956 0.117202 18.2893C0.175769 19.6177 0.390769 20.5309 0.698485 21.3222C1.01593 22.1622 1.50908 22.9142 2.14397 23.5394C2.76913 24.1743 3.52611 24.6676 4.35635 24.9801C5.15245 25.2878 6.06071 25.5026 7.38925 25.5612C8.72237 25.6199 9.14741 25.6344 12.5416 25.6344C15.9359 25.6344 16.3607 25.6199 17.694 25.5612C19.0224 25.5026 19.9356 25.2878 20.7267 24.9801C22.4069 24.3305 23.7352 23.0022 24.3848 21.3222C24.6923 20.5261 24.9073 19.6177 24.9659 18.2893C25.0244 16.956 25.0391 16.5312 25.0391 13.137C25.0391 9.74275 25.0342 9.3179 24.9756 7.98459ZM22.7243 18.1917C22.6705 19.4126 22.4654 20.0719 22.2945 20.5115C21.8744 21.6006 21.01 22.465 19.9209 22.885C19.4814 23.056 18.8173 23.261 17.6011 23.3147C16.2825 23.3734 15.887 23.3879 12.5514 23.3879C9.21571 23.3879 8.81528 23.3734 7.50143 23.3147C6.28048 23.261 5.62117 23.056 5.18164 22.885C4.63965 22.6847 4.14631 22.3673 3.74588 21.9522C3.33076 21.5468 3.01332 21.0584 2.81301 20.5164C2.64207 20.0769 2.43699 19.4126 2.38339 18.1966C2.32463 16.878 2.31013 16.4823 2.31013 13.1467C2.31013 9.81104 2.32463 9.41061 2.38339 8.09695C2.43699 6.87601 2.64207 6.2167 2.81301 5.77717C3.01332 5.23499 3.33076 4.74185 3.75084 4.34122C4.15604 3.9261 4.64442 3.60866 5.1866 3.40854C5.62613 3.23761 6.2904 3.03253 7.50639 2.97873C8.82501 2.92016 9.22067 2.90547 12.5561 2.90547C15.8967 2.90547 16.2922 2.92016 17.6061 2.97873C18.827 3.03253 19.4863 3.23761 19.9259 3.40854C20.4678 3.60866 20.9612 3.9261 21.3616 4.34122C21.7767 4.74661 22.0942 5.23499 22.2945 5.77717C22.4654 6.2167 22.6705 6.88078 22.7243 8.09695C22.7829 9.41557 22.7976 9.81104 22.7976 13.1467C22.7976 16.4823 22.7829 16.873 22.7243 18.1917Z" fill="black"/>
<path d="M12.5462 6.7146C9.00068 6.7146 6.12402 9.59106 6.12402 13.1368C6.12402 16.6824 9.00068 19.5589 12.5462 19.5589C16.0919 19.5589 18.9683 16.6824 18.9683 13.1368C18.9683 9.59106 16.0919 6.7146 12.5462 6.7146ZM12.5462 17.3026C10.246 17.3026 8.38029 15.4371 8.38029 13.1368C8.38029 10.8364 10.246 8.97086 12.5462 8.97086C14.8465 8.97086 16.7121 10.8364 16.7121 13.1368C16.7121 15.4371 14.8465 17.3026 12.5462 17.3026Z" fill="black"/>
<path d="M20.7219 6.46095C20.7219 7.2889 20.0506 7.96023 19.2224 7.96023C18.3945 7.96023 17.7231 7.2889 17.7231 6.46095C17.7231 5.63281 18.3945 4.96167 19.2224 4.96167C20.0506 4.96167 20.7219 5.63281 20.7219 6.46095Z" fill="black"/>
</g>
<defs>
<clipPath id="clip0_607_2698">
<rect width="25" height="25" fill="white" transform="translate(0 0.634521)"/>
</clipPath>
</defs>
</svg>
