<svg width="28" height="29" viewBox="0 0 28 29" fill="none" xmlns="http://www.w3.org/2000/svg">
<g clip-path="url(#clip0_607_2693)">
<path d="M28 5.45277C26.9587 5.90952 25.8492 6.21227 24.6925 6.35927C25.8825 5.64877 26.7908 4.53227 27.2178 3.18652C26.1083 3.84802 24.8832 4.31527 23.5777 4.57602C22.5243 3.45427 21.0227 2.75952 19.3848 2.75952C16.2067 2.75952 13.6482 5.33902 13.6482 8.50127C13.6482 8.95627 13.6868 9.39377 13.7812 9.81027C9.009 9.57752 4.78625 7.29027 1.9495 3.80602C1.45425 4.66527 1.16375 5.64877 1.16375 6.70752C1.16375 8.69552 2.1875 10.4578 3.7135 11.478C2.79125 11.4605 1.8865 11.1928 1.12 10.771C1.12 10.7885 1.12 10.8113 1.12 10.834C1.12 13.6235 3.10975 15.9405 5.719 16.4743C5.25175 16.602 4.7425 16.6633 4.214 16.6633C3.8465 16.6633 3.4755 16.6423 3.12725 16.5653C3.871 18.8385 5.9815 20.5098 8.491 20.564C6.538 22.0918 4.05825 23.0123 1.37375 23.0123C0.903 23.0123 0.4515 22.9913 0 22.9335C2.54275 24.5733 5.55625 25.5095 8.806 25.5095C19.369 25.5095 25.144 16.7595 25.144 9.17502C25.144 8.92127 25.1353 8.67627 25.123 8.43302C26.2622 7.62452 27.2195 6.61477 28 5.45277Z" fill="black"/>
</g>
<defs>
<clipPath id="clip0_607_2693">
<rect width="28" height="28" fill="white" transform="translate(0 0.134521)"/>
</clipPath>
</defs>
</svg>
