<svg width="32" height="33" viewBox="0 0 32 33" fill="none" xmlns="http://www.w3.org/2000/svg">
<path d="M30.5537 8.30798C30.208 7.02277 29.1947 6.00964 27.9097 5.66357C25.5621 5.02124 16.1715 5.02124 16.1715 5.02124C16.1715 5.02124 6.78131 5.02124 4.43372 5.63922C3.1734 5.98492 2.13538 7.02295 1.78967 8.30798C1.17188 10.6554 1.17188 15.5236 1.17188 15.5236C1.17188 15.5236 1.17188 20.4164 1.78967 22.7393C2.13574 24.0243 3.14868 25.0374 4.4339 25.3835C6.80603 26.026 16.1719 26.026 16.1719 26.026C16.1719 26.026 25.5621 26.026 27.9097 25.408C29.1949 25.0621 30.208 24.049 30.5541 22.764C31.1717 20.4164 31.1717 15.5483 31.1717 15.5483C31.1717 15.5483 31.1964 10.6554 30.5537 8.30798V8.30798ZM13.1818 20.0211V11.0262L20.9905 15.5236L13.1818 20.0211Z" fill="black"/>
</svg>
